<?xml version="1.0" encoding="UTF-8"?>
<svg xmlns="http://www.w3.org/2000/svg" xmlns:xlink="http://www.w3.org/1999/xlink" width="100px" height="100px" viewBox="0 0 100 100" version="1.1">
<g id="surface1">
<path style=" stroke:none;fill-rule:nonzero;fill:rgb(91.372549%,91.372549%,87.843137%);fill-opacity:1;" d="M 66.042969 0 L 14.21875 0 C 12.777344 0 11.605469 1.167969 11.605469 3.4375 L 11.605469 98.214844 C 11.605469 98.832031 12.777344 100 14.21875 100 L 85.78125 100 C 87.222656 100 88.394531 98.832031 88.394531 98.214844 L 88.394531 23.175781 C 88.394531 21.933594 88.226562 21.53125 87.933594 21.238281 L 67.15625 0.457031 C 66.859375 0.164062 66.460938 0 66.042969 0 Z M 66.042969 0 "/>
<path style=" stroke:none;fill-rule:nonzero;fill:rgb(85.098039%,84.313725%,79.215686%);fill-opacity:1;" d="M 66.964844 0.269531 L 66.964844 21.429688 L 88.125 21.429688 Z M 66.964844 0.269531 "/>
<path style=" stroke:none;fill-rule:nonzero;fill:rgb(92.54902%,40%,18.823529%);fill-opacity:1;" d="M 85.78125 100 L 14.21875 100 C 12.777344 100 11.605469 98.832031 11.605469 97.386719 L 11.605469 69.644531 L 88.394531 69.644531 L 88.394531 97.386719 C 88.394531 98.832031 87.222656 100 85.78125 100 Z M 85.78125 100 "/>
<path style=" stroke:none;fill-rule:nonzero;fill:rgb(100%,100%,100%);fill-opacity:1;" d="M 31.167969 76.648438 L 31.167969 94.644531 L 28.238281 94.644531 L 28.238281 86.539062 L 20.453125 86.539062 L 20.453125 94.644531 L 17.472656 94.644531 L 17.472656 76.648438 L 20.453125 76.648438 L 20.453125 84.535156 L 28.238281 84.535156 L 28.238281 76.648438 Z M 48.40625 76.648438 L 48.40625 78.652344 L 43.035156 78.652344 L 43.035156 94.644531 L 40.082031 94.644531 L 40.082031 78.652344 L 34.710938 78.652344 L 34.710938 76.648438 Z M 65.542969 76.648438 L 68.523438 76.648438 L 68.523438 94.644531 L 65.542969 94.644531 L 65.542969 82.265625 L 61.515625 92.273438 L 58.929688 92.273438 L 54.875 82.265625 L 54.875 94.644531 L 51.894531 94.644531 L 51.894531 76.648438 L 54.875 76.648438 L 60.222656 88.957031 Z M 76.019531 76.648438 L 76.019531 92.421875 L 84.292969 92.421875 L 84.292969 94.644531 L 73.039062 94.644531 L 73.039062 76.648438 Z M 76.019531 76.648438 "/>
<path style=" stroke:none;fill-rule:nonzero;fill:rgb(92.54902%,40%,18.823529%);fill-opacity:1;" d="M 41.441406 29.09375 C 41.105469 28.757812 40.652344 28.570312 40.179688 28.570312 C 39.703125 28.570312 39.25 28.757812 38.917969 29.09375 L 28.203125 39.808594 C 27.867188 40.144531 27.679688 40.597656 27.679688 41.070312 C 27.679688 41.546875 27.867188 42 28.203125 42.332031 L 38.917969 53.046875 C 39.25 53.382812 39.703125 53.574219 40.179688 53.574219 C 40.652344 53.574219 41.105469 53.382812 41.441406 53.046875 C 41.777344 52.714844 41.964844 52.257812 41.964844 51.785156 C 41.964844 51.3125 41.777344 50.859375 41.441406 50.523438 L 31.988281 41.070312 L 41.441406 31.621094 C 41.777344 31.285156 41.964844 30.832031 41.964844 30.355469 C 41.964844 29.882812 41.777344 29.429688 41.441406 29.09375 Z M 73.582031 39.808594 L 62.871094 29.09375 C 62.171875 28.398438 61.042969 28.398438 60.34375 29.09375 C 59.648438 29.792969 59.648438 30.921875 60.34375 31.621094 L 69.796875 41.070312 L 60.34375 50.523438 C 59.648438 51.21875 59.648438 52.351562 60.34375 53.046875 C 61.042969 53.746094 62.171875 53.746094 62.871094 53.046875 L 73.582031 42.332031 C 73.917969 42 74.109375 41.546875 74.109375 41.070312 C 74.109375 40.597656 73.917969 40.144531 73.582031 39.808594 Z M 73.582031 39.808594 "/>
</g>
</svg>
