<?xml version="1.0" encoding="UTF-8"?>
<svg xmlns="http://www.w3.org/2000/svg" xmlns:xlink="http://www.w3.org/1999/xlink" width="150px" height="150px" viewBox="0 0 150 150" version="1.1">
<g id="surface1">
<path style=" stroke:none;fill-rule:nonzero;fill:rgb(91.372549%,91.372549%,87.843137%);fill-opacity:1;" d="M 99.066406 0 L 21.328125 0 C 19.164062 0 17.410156 1.753906 17.410156 5.160156 L 17.410156 147.320312 C 17.410156 148.246094 19.164062 150 21.328125 150 L 128.671875 150 C 130.835938 150 132.589844 148.246094 132.589844 147.320312 L 132.589844 34.761719 C 132.589844 32.898438 132.339844 32.296875 131.902344 31.855469 L 100.734375 0.6875 C 100.289062 0.25 99.691406 0 99.066406 0 Z M 99.066406 0 "/>
<path style=" stroke:none;fill-rule:nonzero;fill:rgb(85.098039%,84.313725%,79.215686%);fill-opacity:1;" d="M 100.445312 0.40625 L 100.445312 32.144531 L 132.183594 32.144531 Z M 100.445312 0.40625 "/>
<path style=" stroke:none;fill-rule:nonzero;fill:rgb(0%,58.823529%,90.196078%);fill-opacity:1;" d="M 128.671875 150 L 21.328125 150 C 19.164062 150 17.410156 148.246094 17.410156 146.082031 L 17.410156 104.464844 L 132.589844 104.464844 L 132.589844 146.082031 C 132.589844 148.246094 130.835938 150 128.671875 150 Z M 128.671875 150 "/>
<path style=" stroke:none;fill-rule:nonzero;fill:rgb(100%,100%,100%);fill-opacity:1;" d="M 63.160156 139.21875 C 62.160156 140.195312 61.023438 140.925781 59.757812 141.414062 C 58.488281 141.902344 57.121094 142.144531 55.65625 142.144531 C 54.042969 142.144531 52.5625 141.855469 51.207031 141.269531 C 49.851562 140.679688 48.667969 139.816406 47.65625 138.667969 C 46.640625 137.519531 45.847656 136.078125 45.273438 134.347656 C 44.699219 132.613281 44.414062 130.609375 44.414062 128.339844 C 44.414062 126.074219 44.699219 124.074219 45.273438 122.355469 C 45.847656 120.632812 46.640625 119.199219 47.65625 118.050781 C 48.667969 116.90625 49.855469 116.03125 51.226562 115.433594 C 52.59375 114.832031 54.070312 114.535156 55.65625 114.535156 C 57.121094 114.535156 58.488281 114.78125 59.757812 115.265625 C 61.023438 115.753906 62.160156 116.488281 63.160156 117.464844 L 60.121094 120.175781 C 59.511719 119.464844 58.835938 118.953125 58.085938 118.636719 C 57.339844 118.320312 56.570312 118.160156 55.761719 118.160156 C 54.859375 118.160156 54 118.328125 53.179688 118.671875 C 52.359375 119.015625 51.628906 119.59375 50.984375 120.410156 C 50.339844 121.226562 49.828125 122.28125 49.464844 123.578125 C 49.101562 124.875 48.902344 126.457031 48.878906 128.339844 C 48.902344 130.171875 49.09375 131.730469 49.445312 133.027344 C 49.800781 134.320312 50.289062 135.375 50.910156 136.195312 C 51.535156 137.015625 52.242188 137.609375 53.035156 137.988281 C 53.828125 138.371094 54.664062 138.558594 55.546875 138.558594 C 56.425781 138.558594 57.25 138.394531 58.019531 138.082031 C 58.785156 137.765625 59.488281 137.25 60.125 136.542969 Z M 84.730469 134.566406 C 84.730469 135.542969 84.53125 136.488281 84.125 137.40625 C 83.722656 138.320312 83.15625 139.128906 82.421875 139.820312 C 81.6875 140.515625 80.789062 141.074219 79.710938 141.488281 C 78.636719 141.902344 77.417969 142.109375 76.050781 142.109375 C 75.464844 142.109375 74.859375 142.078125 74.238281 142.019531 C 73.613281 141.957031 72.984375 141.851562 72.351562 141.707031 C 71.714844 141.5625 71.109375 141.359375 70.539062 141.101562 C 69.964844 140.84375 69.472656 140.535156 69.054688 140.167969 L 69.824219 137.015625 C 70.164062 137.210938 70.597656 137.402344 71.121094 137.585938 C 71.644531 137.765625 72.1875 137.9375 72.75 138.097656 C 73.3125 138.253906 73.871094 138.382812 74.433594 138.480469 C 74.996094 138.582031 75.519531 138.628906 76.011719 138.628906 C 77.5 138.628906 78.640625 138.28125 79.433594 137.585938 C 80.226562 136.886719 80.621094 135.855469 80.621094 134.492188 C 80.621094 133.660156 80.34375 132.953125 79.78125 132.367188 C 79.21875 131.78125 78.515625 131.25 77.675781 130.773438 C 76.835938 130.296875 75.925781 129.824219 74.945312 129.34375 C 73.96875 128.867188 73.054688 128.304688 72.199219 127.660156 C 71.347656 127.015625 70.640625 126.25 70.078125 125.375 C 69.515625 124.496094 69.234375 123.394531 69.234375 122.078125 C 69.234375 120.882812 69.457031 119.820312 69.894531 118.894531 C 70.332031 117.96875 70.925781 117.175781 71.671875 116.53125 C 72.414062 115.886719 73.28125 115.390625 74.269531 115.046875 C 75.261719 114.703125 76.304688 114.535156 77.402344 114.535156 C 78.523438 114.535156 79.660156 114.640625 80.808594 114.847656 C 81.953125 115.050781 82.878906 115.390625 83.589844 115.855469 C 83.441406 116.167969 83.273438 116.519531 83.078125 116.898438 L 82.53125 117.957031 C 82.359375 118.289062 82.214844 118.5625 82.089844 118.785156 C 81.96875 119.003906 81.894531 119.125 81.871094 119.152344 C 81.722656 119.078125 81.558594 118.980469 81.375 118.859375 C 81.191406 118.734375 80.929688 118.613281 80.585938 118.492188 C 80.246094 118.367188 79.792969 118.285156 79.230469 118.234375 C 78.667969 118.183594 77.949219 118.199219 77.070312 118.273438 C 76.582031 118.324219 76.121094 118.460938 75.675781 118.691406 C 75.234375 118.925781 74.847656 119.210938 74.503906 119.550781 C 74.160156 119.894531 73.894531 120.277344 73.699219 120.707031 C 73.503906 121.136719 73.40625 121.546875 73.40625 121.933594 C 73.40625 122.910156 73.683594 123.695312 74.246094 124.296875 C 74.808594 124.894531 75.507812 125.417969 76.332031 125.871094 C 77.160156 126.324219 78.066406 126.761719 79.042969 127.1875 C 80.023438 127.613281 80.929688 128.136719 81.773438 128.746094 C 82.617188 129.355469 83.316406 130.121094 83.878906 131.03125 C 84.441406 131.945312 84.730469 133.125 84.730469 134.566406 Z M 104.578125 134.566406 C 104.578125 135.542969 104.378906 136.488281 103.972656 137.40625 C 103.570312 138.320312 103.003906 139.128906 102.269531 139.820312 C 101.535156 140.515625 100.636719 141.074219 99.558594 141.488281 C 98.484375 141.902344 97.265625 142.109375 95.898438 142.109375 C 95.3125 142.109375 94.707031 142.078125 94.085938 142.019531 C 93.460938 141.957031 92.832031 141.851562 92.199219 141.707031 C 91.5625 141.5625 90.957031 141.359375 90.386719 141.101562 C 89.8125 140.84375 89.320312 140.535156 88.902344 140.167969 L 89.671875 137.015625 C 90.011719 137.210938 90.445312 137.402344 90.96875 137.585938 C 91.496094 137.765625 92.035156 137.9375 92.597656 138.097656 C 93.160156 138.253906 93.71875 138.382812 94.28125 138.480469 C 94.84375 138.582031 95.367188 138.628906 95.859375 138.628906 C 97.347656 138.628906 98.488281 138.28125 99.28125 137.585938 C 100.074219 136.886719 100.46875 135.855469 100.46875 134.492188 C 100.46875 133.660156 100.191406 132.953125 99.628906 132.367188 C 99.066406 131.78125 98.363281 131.25 97.523438 130.773438 C 96.683594 130.296875 95.773438 129.824219 94.792969 129.34375 C 93.816406 128.867188 92.902344 128.304688 92.050781 127.660156 C 91.195312 127.015625 90.488281 126.25 89.925781 125.375 C 89.363281 124.496094 89.082031 123.394531 89.082031 122.078125 C 89.082031 120.882812 89.304688 119.820312 89.742188 118.894531 C 90.183594 117.96875 90.773438 117.175781 91.519531 116.53125 C 92.261719 115.886719 93.132812 115.390625 94.121094 115.046875 C 95.109375 114.703125 96.152344 114.535156 97.25 114.535156 C 98.375 114.535156 99.507812 114.640625 100.65625 114.847656 C 101.800781 115.050781 102.730469 115.390625 103.4375 115.855469 C 103.292969 116.167969 103.121094 116.519531 102.925781 116.898438 L 102.378906 117.957031 C 102.207031 118.289062 102.0625 118.5625 101.9375 118.785156 C 101.816406 119.003906 101.742188 119.125 101.71875 119.152344 C 101.570312 119.078125 101.40625 118.980469 101.222656 118.859375 C 101.039062 118.734375 100.777344 118.613281 100.4375 118.492188 C 100.09375 118.367188 99.644531 118.285156 99.082031 118.234375 C 98.519531 118.183594 97.796875 118.199219 96.917969 118.273438 C 96.429688 118.324219 95.96875 118.460938 95.527344 118.691406 C 95.082031 118.925781 94.695312 119.210938 94.351562 119.550781 C 94.011719 119.894531 93.742188 120.277344 93.546875 120.707031 C 93.351562 121.136719 93.253906 121.546875 93.253906 121.933594 C 93.253906 122.910156 93.53125 123.695312 94.09375 124.296875 C 94.65625 124.894531 95.355469 125.417969 96.183594 125.871094 C 97.011719 126.324219 97.914062 126.761719 98.894531 127.1875 C 99.871094 127.613281 100.777344 128.136719 101.621094 128.746094 C 102.464844 129.355469 103.164062 130.121094 103.726562 131.03125 C 104.289062 131.945312 104.578125 133.125 104.578125 134.566406 Z M 104.578125 134.566406 "/>
<path style=" stroke:none;fill-rule:nonzero;fill:rgb(0%,58.823529%,90.196078%);fill-opacity:1;" d="M 52.230469 50.894531 L 52.230469 40.179688 C 52.230469 38.703125 53.433594 37.5 54.910156 37.5 C 56.390625 37.5 57.589844 36.300781 57.589844 34.820312 C 57.589844 33.34375 56.390625 32.144531 54.910156 32.144531 C 50.480469 32.144531 46.875 35.75 46.875 40.179688 L 46.875 50.894531 C 46.875 53.847656 44.472656 56.25 41.519531 56.25 C 40.039062 56.25 38.839844 57.449219 38.839844 58.929688 C 38.839844 60.40625 40.039062 61.605469 41.519531 61.605469 C 44.472656 61.605469 46.875 64.011719 46.875 66.964844 L 46.875 77.679688 C 46.875 82.109375 50.480469 85.714844 54.910156 85.714844 C 56.390625 85.714844 57.589844 84.515625 57.589844 83.035156 C 57.589844 81.554688 56.390625 80.355469 54.910156 80.355469 C 53.433594 80.355469 52.230469 79.15625 52.230469 77.679688 L 52.230469 66.964844 C 52.230469 63.75 50.78125 60.894531 48.53125 58.929688 C 50.871094 56.914062 52.222656 53.980469 52.230469 50.894531 Z M 105.804688 56.25 C 102.847656 56.25 100.445312 53.847656 100.445312 50.894531 L 100.445312 40.179688 C 100.445312 35.75 96.839844 32.144531 92.410156 32.144531 C 90.929688 32.144531 89.730469 33.34375 89.730469 34.820312 C 89.730469 36.300781 90.929688 37.5 92.410156 37.5 C 93.890625 37.5 95.089844 38.703125 95.089844 40.179688 L 95.089844 50.894531 C 95.089844 54.105469 96.542969 56.960938 98.792969 58.929688 C 96.449219 60.945312 95.097656 63.875 95.089844 66.964844 L 95.089844 77.679688 C 95.089844 79.15625 93.890625 80.355469 92.410156 80.355469 C 90.929688 80.355469 89.730469 81.554688 89.730469 83.035156 C 89.730469 84.515625 90.929688 85.714844 92.410156 85.714844 C 96.839844 85.714844 100.445312 82.109375 100.445312 77.679688 L 100.445312 66.964844 C 100.445312 64.011719 102.847656 61.605469 105.804688 61.605469 C 107.28125 61.605469 108.480469 60.40625 108.480469 58.929688 C 108.480469 57.449219 107.28125 56.25 105.804688 56.25 Z M 105.804688 56.25 "/>
</g>
</svg>
